<?xml version="1.0" standalone="yes"?>
<svg width="30" height="50">
<path style="fill:#000000; stroke:none;" d="M0 3L3 0L0 3z"/>
<path style="fill:#c70101; stroke:none;" d="M3.14815 1.04707C-7.65038 6.90173 14.9444 19.1152 14.9444 25C14.9444 32.0712 2.5839 36.2223 0.662037 42.9992C-0.428841 46.8459 3.15406 50.4288 7.00077 49.338C13.2936 47.5534 31.6638 30.0263 29.3773 23C27.5246 17.3067 9.59398 -2.44768 3.14815 1.04707z"/>
<path style="fill:#000000; stroke:none;" d="M8 0L30 22L30 0L8 0M0 8L0 42C4.25669 39.0015 15.7932 30.6833 15.7932 25C15.7932 19.3167 4.25669 10.9985 0 8M29 28L8 50L30 50L29 28M0 47L3 50L0 47z"/>
</svg>
